<svg xmlns="http://www.w3.org/2000/svg" viewBox="0 0 64 64" role="img" aria-labelledby="title">
  <title id="title">Kokpit navbar cockpit mark</title>
  <defs>
    <linearGradient id="hud" x1="0" y1="0" x2="0" y2="1"><stop stop-color="#53C4FF"/><stop offset="1" stop-color="#5267D8"/></linearGradient>
  </defs>
  <path fill="#0B1020" stroke="#64748B" stroke-width="2.4" stroke-linejoin="round" d="M11 7h42l7 9v30l-8 11H12L4 46V16z"/>
  <path fill="#243247" d="M12.5 10h39l5.5 7v28l-6.5 9H13.5L7 45V17z"/>
  <path fill="url(#hud)" stroke="#AAB6FF" stroke-width="1.4" stroke-linejoin="round" d="M17 16h30l4 11H13z"/>
  <circle cx="32" cy="37" r="9.5" fill="#0B1020" stroke="#64748B" stroke-width="1.8"/>
  <path fill="none" stroke="#53C4FF" stroke-width="1.7" stroke-linecap="round" d="M26 40a6.5 6.5 0 0 1 12 0M32 31v-2"/>
  <path fill="#F8FAFC" d="m31.3 38.3 6-4.4-4.4 6z"/>
  <circle cx="32" cy="38.5" r="1.4" fill="#53C4FF"/>
  <path stroke="#53C4FF" stroke-width="2.4" stroke-linecap="round" d="M14 34h6m-6 4h5m31-4h-6m6 4h-5"/>
  <path fill="none" stroke="#64748B" stroke-width="2" stroke-linecap="round" d="M22 49h20"/>
</svg>
